<mxfile host="app.diagrams.net" agent="Mozilla/5.0 (Windows NT 10.0; Win64; x64) AppleWebKit/537.36 (KHTML, like Gecko) Chrome/139.0.0.0 Safari/537.36" version="28.1.2">
  <diagram name="Page-1" id="omuilftm994WDXqsOfi1">
    <mxGraphModel dx="1389" dy="749" grid="1" gridSize="10" guides="1" tooltips="1" connect="1" arrows="1" fold="1" page="1" pageScale="1" pageWidth="827" pageHeight="1169" math="0" shadow="0">
      <root>
        <mxCell id="0" />
        <mxCell id="1" parent="0" />
        <mxCell id="N5G2laQTKb_QuyDYiWAt-54" value="" style="edgeStyle=orthogonalEdgeStyle;rounded=0;orthogonalLoop=1;jettySize=auto;html=1;" edge="1" parent="1" source="N5G2laQTKb_QuyDYiWAt-52" target="N5G2laQTKb_QuyDYiWAt-53">
          <mxGeometry relative="1" as="geometry" />
        </mxCell>
        <mxCell id="N5G2laQTKb_QuyDYiWAt-52" value="start" style="ellipse;whiteSpace=wrap;html=1;fillColor=#6d8764;fontColor=#ffffff;strokeColor=#3A5431;" vertex="1" parent="1">
          <mxGeometry x="60" y="90" width="150" height="80" as="geometry" />
        </mxCell>
        <mxCell id="N5G2laQTKb_QuyDYiWAt-56" value="" style="edgeStyle=orthogonalEdgeStyle;rounded=0;orthogonalLoop=1;jettySize=auto;html=1;" edge="1" parent="1" source="N5G2laQTKb_QuyDYiWAt-53" target="N5G2laQTKb_QuyDYiWAt-55">
          <mxGeometry relative="1" as="geometry" />
        </mxCell>
        <mxCell id="N5G2laQTKb_QuyDYiWAt-53" value="new user" style="rhombus;whiteSpace=wrap;html=1;fillColor=light-dark(#E51400,#FF0000);fontColor=#ffffff;strokeColor=#B20000;" vertex="1" parent="1">
          <mxGeometry x="60" y="210" width="150" height="80" as="geometry" />
        </mxCell>
        <mxCell id="N5G2laQTKb_QuyDYiWAt-58" value="" style="edgeStyle=orthogonalEdgeStyle;rounded=0;orthogonalLoop=1;jettySize=auto;html=1;" edge="1" parent="1" source="N5G2laQTKb_QuyDYiWAt-55" target="N5G2laQTKb_QuyDYiWAt-57">
          <mxGeometry relative="1" as="geometry" />
        </mxCell>
        <mxCell id="N5G2laQTKb_QuyDYiWAt-55" value="recognize the face" style="shape=parallelogram;perimeter=parallelogramPerimeter;whiteSpace=wrap;html=1;fixedSize=1;fillColor=light-dark(#000000,#FF3399);strokeColor=light-dark(#000000,#FF0080);" vertex="1" parent="1">
          <mxGeometry x="60" y="350" width="150" height="60" as="geometry" />
        </mxCell>
        <mxCell id="N5G2laQTKb_QuyDYiWAt-60" value="" style="edgeStyle=orthogonalEdgeStyle;rounded=0;orthogonalLoop=1;jettySize=auto;html=1;" edge="1" parent="1" source="N5G2laQTKb_QuyDYiWAt-57" target="N5G2laQTKb_QuyDYiWAt-59">
          <mxGeometry relative="1" as="geometry" />
        </mxCell>
        <mxCell id="N5G2laQTKb_QuyDYiWAt-57" value="face recognize" style="rhombus;whiteSpace=wrap;html=1;fillColor=#cce5ff;strokeColor=#36393d;" vertex="1" parent="1">
          <mxGeometry x="60" y="480" width="150" height="80" as="geometry" />
        </mxCell>
        <mxCell id="N5G2laQTKb_QuyDYiWAt-59" value="stored in csv file with registration number &amp;amp; date time of entry" style="shape=parallelogram;perimeter=parallelogramPerimeter;whiteSpace=wrap;html=1;fixedSize=1;fillColor=#e51400;fontColor=#ffffff;strokeColor=#B20000;" vertex="1" parent="1">
          <mxGeometry x="30" y="650" width="210" height="60" as="geometry" />
        </mxCell>
        <mxCell id="N5G2laQTKb_QuyDYiWAt-62" value="end" style="ellipse;whiteSpace=wrap;html=1;fillColor=#f0a30a;fontColor=#000000;strokeColor=#BD7000;" vertex="1" parent="1">
          <mxGeometry x="65" y="760" width="145" height="80" as="geometry" />
        </mxCell>
        <mxCell id="N5G2laQTKb_QuyDYiWAt-64" value="" style="endArrow=classic;html=1;rounded=0;exitX=0.5;exitY=1;exitDx=0;exitDy=0;entryX=0.5;entryY=0;entryDx=0;entryDy=0;" edge="1" parent="1" source="N5G2laQTKb_QuyDYiWAt-59" target="N5G2laQTKb_QuyDYiWAt-62">
          <mxGeometry width="50" height="50" relative="1" as="geometry">
            <mxPoint x="190" y="770" as="sourcePoint" />
            <mxPoint x="240" y="720" as="targetPoint" />
          </mxGeometry>
        </mxCell>
        <mxCell id="N5G2laQTKb_QuyDYiWAt-65" value="give your photograph" style="rounded=0;whiteSpace=wrap;html=1;fillColor=#fff2cc;strokeColor=#d6b656;gradientColor=#ffd966;" vertex="1" parent="1">
          <mxGeometry x="380" y="220" width="120" height="60" as="geometry" />
        </mxCell>
        <mxCell id="N5G2laQTKb_QuyDYiWAt-66" value="" style="endArrow=none;html=1;rounded=0;entryX=0;entryY=0.5;entryDx=0;entryDy=0;exitX=1;exitY=0.5;exitDx=0;exitDy=0;" edge="1" parent="1" source="N5G2laQTKb_QuyDYiWAt-53" target="N5G2laQTKb_QuyDYiWAt-65">
          <mxGeometry width="50" height="50" relative="1" as="geometry">
            <mxPoint x="250" y="280" as="sourcePoint" />
            <mxPoint x="300" y="230" as="targetPoint" />
          </mxGeometry>
        </mxCell>
        <mxCell id="N5G2laQTKb_QuyDYiWAt-67" value="store the face data in folder on your name" style="whiteSpace=wrap;html=1;rounded=0;fillColor=#f5f5f5;gradientColor=#b3b3b3;strokeColor=#666666;" vertex="1" parent="1">
          <mxGeometry x="380" y="350" width="120" height="60" as="geometry" />
        </mxCell>
        <mxCell id="N5G2laQTKb_QuyDYiWAt-69" value="" style="endArrow=none;html=1;rounded=0;entryX=0.5;entryY=1;entryDx=0;entryDy=0;exitX=0.5;exitY=0;exitDx=0;exitDy=0;" edge="1" parent="1" source="N5G2laQTKb_QuyDYiWAt-67" target="N5G2laQTKb_QuyDYiWAt-65">
          <mxGeometry width="50" height="50" relative="1" as="geometry">
            <mxPoint x="390" y="350" as="sourcePoint" />
            <mxPoint x="440" y="300" as="targetPoint" />
          </mxGeometry>
        </mxCell>
        <mxCell id="N5G2laQTKb_QuyDYiWAt-70" value="" style="endArrow=classic;html=1;rounded=0;exitX=0;exitY=0.5;exitDx=0;exitDy=0;" edge="1" parent="1" source="N5G2laQTKb_QuyDYiWAt-67" target="N5G2laQTKb_QuyDYiWAt-55">
          <mxGeometry width="50" height="50" relative="1" as="geometry">
            <mxPoint x="370" y="390" as="sourcePoint" />
            <mxPoint x="290" y="370" as="targetPoint" />
          </mxGeometry>
        </mxCell>
        <mxCell id="N5G2laQTKb_QuyDYiWAt-71" value="" style="endArrow=classic;html=1;rounded=0;exitX=1;exitY=0.5;exitDx=0;exitDy=0;entryX=0.583;entryY=0;entryDx=0;entryDy=0;entryPerimeter=0;" edge="1" parent="1" source="N5G2laQTKb_QuyDYiWAt-57" target="N5G2laQTKb_QuyDYiWAt-65">
          <mxGeometry width="50" height="50" relative="1" as="geometry">
            <mxPoint x="420" y="400" as="sourcePoint" />
            <mxPoint x="440" y="180" as="targetPoint" />
            <Array as="points">
              <mxPoint x="570" y="520" />
              <mxPoint x="570" y="180" />
              <mxPoint x="450" y="180" />
            </Array>
          </mxGeometry>
        </mxCell>
      </root>
    </mxGraphModel>
  </diagram>
</mxfile>
